<?xml version="1.0" encoding="utf-8"?><svg xmlns="http://www.w3.org/2000/svg" viewBox="0 0 350 350" style="enable-background:new 0 0 350 350" xml:space="preserve"><switch><g><path style="opacity:.4" d="M45 45H305V305H45z"/><path style="fill:#2b7f90" d="M271.667 266.583c1.519 7.25 3.037 14.5 4.556 21.75-11.296-5.741-22.593-11.481-33.889-17.222-.741-.333-1.481-.667-2.222-1-7.37 16.37-14.741 32.741-22.111 49.111-15.889-14.815-31.778-29.63-47.667-44.444-10.688 7.296-21.375 14.593-32.062 21.889-1.062-6.889-2.125-13.778-3.188-20.667-16.611 13.91-33.222 27.819-49.833 41.729l1.278-51.507c-4.509 2.306-9.019 4.611-13.528 6.917C73 206.426 73 139.713 73 73h204v192.319c-1.778.422-3.556.843-5.333 1.264z"/><path style="fill:#fff" d="M242.333 271.111c-8 16.444-16 32.889-24 49.333-15.917-13.537-31.833-27.074-47.75-40.611-10.771 5.611-21.542 11.222-32.312 16.833C175.663 222.111 213.054 147.556 250.446 73h17.22c-7.485 66.525-14.97 133.049-22.455 199.574-.959-.488-1.918-.975-2.878-1.463zM191.5 73H239c-43.11 51.481-86.219 102.962-129.329 154.442-12.224-.592-24.448-1.184-36.671-1.776v-54.667c39.5-32.666 79-65.332 118.5-97.999z"/><path d="M132.556 73 161.333 73 73 137 73 105zM241.167 73H246c-17.535 22.083-35.071 44.166-52.606 66.249-1.909-1.639-3.818-3.277-5.727-4.916 17.833-20.444 35.666-40.889 53.5-61.333zM277 73h-9.333c-5.097 40.043-9.913 80.686-14.417 121.917-2.85 26.093-5.528 51.98-8.039 77.657 6.675 3.392 13.35 6.784 20.024 10.176 1.945-26.025 3.794-52.239 5.542-78.639 2.284-34.497 4.355-68.703 6.222-102.611C277 92 277 82.5 277 73z"/><path d="M234.833 144.667c.64-.244 3.868-1.405 6.896.25.954.522 1.637 1.185 2.104 1.75 12.258 13.842 24.567 27.925 36.917 42.25 13.297 15.425 26.324 30.762 39.083 46 .085.071 1.856 1.592 1.5 3.833-.271 1.707-1.66 3.094-3.458 3.417-41.588 14.833-83.176 29.667-124.764 44.5-3.445 1.256-7.041.743-9.239-1.414-1.186-1.163-1.695-2.541-1.928-3.475-1.727-12.391-3.377-24.929-4.944-37.611-3.498-28.309-6.421-56.044-8.833-83.167 22.222-5.444 44.444-10.889 66.666-16.333z"/><path style="fill:#fff" d="m238 151.083 74.778 83.583c.808.902 1.009 2.051.545 2.823-.241.401-.613.62-.887.736-39.974 13.415-79.949 26.83-119.923 40.245-.171.034-1.321.24-2.346-.554-1.041-.806-1.117-1.996-1.125-2.167l-15.264-111.417L238 151.083z"/><path d="m199.625 185.25 28.458-8.125c-.87.565-5.432 3.648-6.25 9.292-.333 2.301.069 4.245.458 5.5 1.123-1.767 3.663-5.187 8.208-7.333 4.323-2.041 8.201-1.864 10.694-1.75 4.274.195 7.287 1.389 8.843 2.022 2.052.834 3.353 1.381 4.441 2.693 1.657 1.997 1.848 4.593 1.688 7.035-.374 5.711-2.543 8.691-7.472 19.722 0 0-3.343 7.482-3.417 12.417-.014.931.057 4.607.903 5.861.086.127.484.681.603 1.489.068.459.023.845-.02 1.081-.116-.079-.231-.157-.347-.236-4.608-4.1-8.83-6.535-11.833-8-3.022-1.475-7.945-3.003-17.667-6-2.503-.772-6.884-2.106-12.531-4.341-3.759-1.488-6.213-2.637-8.719-4.825-2.31-2.017-4.654-4.063-4.837-7-.284-4.552 4.826-8.024 6.754-9.334 3.607-2.451 7.122-3.052 9.917-3.5 2.597-.416 6.714-.75 11.75.25-1.646-1.308-3.804-2.761-6.5-4-5.244-2.412-10.066-2.883-13.124-2.918zM24 191.889c-1.915 1.514-2.864 3.829-2.417 5.986.368 1.774 1.56 2.855 2.028 3.236 30.269 22.324 60.537 44.648 90.806 66.972.603.37 2.843 1.648 5.861 1.222 3.003-.424 4.798-2.254 5.278-2.778 38.556-46.139 77.111-92.278 115.667-138.417.236-.316 1.278-1.781 1-3.75-.395-2.8-3.084-3.97-3.222-4.028-24.931-9.153-49.861-18.306-74.792-27.458-.733-.257-2.312-.701-4.292-.375-1.959.322-3.303 1.233-3.917 1.708-44 32.562-88 65.122-132 97.682z"/><path style="fill:#fff" d="M36.125 200.5c26.506 20.227 53.011 40.454 79.517 60.681.302.272 1.241 1.048 2.664 1.152 1.943.143 3.253-1.077 3.464-1.281 1.818-2.104 4.638-5.377 8.064-9.386 26.08-30.517 42.499-51.315 62.833-76.417 9.517-11.749 23.53-28.932 41-49.917l-71.556-26.556C155.915 103.16 146.044 110.19 134 119c-18.405 13.463-30.933 23.069-64.208 48.375-7.954 6.049-19.413 14.759-33.292 25.292-.104.068-2.383 1.61-2.25 4.292.105 2.118 1.637 3.355 1.875 3.541z"/><path d="M86.833 206.25c.704-.866 1.961-2.495 3.227-4.703 8.991-15.684.905-29.992 8.357-44.63 3.24-6.364 7.53-9.085 8.626-9.744.725-.436 2.516-1.451 5.809-2.37 4.091-1.142 17.069-4.766 23.774 2.192 1.077 1.117 3.096 3.654 3.708 8.505 1.147-1.219 3.391-3.941 4.333-8.083 1.32-5.802-.807-10.457-1.5-11.833 10.222 4.111 20.444 8.222 30.667 12.333-4.01-.133-10.113.149-17.074 2.442-5.691 1.875-10.047 4.465-13.009 6.558 2.605-.844 6.391-1.672 10.917-1.333 2.563.192 7.233.599 11.833 3.75 2.528 1.732 5.816 3.984 6.5 7.917.956 5.494-3.893 10.109-4.786 10.958-.76.723-1.796 1.562-4.548 3.042-6.359 3.419-11.878 4.882-12.333 5-21.526 5.565-23.083 5.917-23.083 5.917-19.626 4.433-24.059 5.544-30.25 8.25-4.859 2.122-8.669 4.297-11.168 5.832z"/></g></switch></svg>