<?xml version="1.0" encoding="utf-8"?><svg xmlns="http://www.w3.org/2000/svg" viewBox="0 0 350 350" style="enable-background:new 0 0 350 350" xml:space="preserve"><switch><g><path style="opacity:.4" d="M45 45H305V305H45z"/><path style="fill:#d14007" d="M73 73H277V277H73z"/><path d="m73 73 102 142.222L277 73v176.889c-5.373.345-10.857.786-16.444 1.333-15.835 1.551-30.767 3.789-44.727 6.464-11.147.549-22.293 1.098-33.44 1.647-15.113-.211-30.226-.422-45.34-.633-6.331-1.437-12.662-2.874-18.994-4.311-15.019-1.5-30.037-3-45.056-4.5C73 190.926 73 131.963 73 73z"/><path d="M174.778 35.222c-5.005 12.892-9.893 26.575-14.528 41.028-3.123 9.739-5.946 19.249-8.5 28.5-3.389-3.222-6.778-6.444-10.167-9.667-5.556-8.366-11.111-16.731-16.667-25.097-4.041 5.729-8.311 12.778-12.083 21.181-7.461 16.618-9.996 31.889-10.833 42.833-7.748-2.405-19.323-7.12-30.75-16.667-6.296-5.26-10.993-10.689-14.417-15.333-2.314 16.62-1.3 30.288.107 39.726 1.473 9.876 3.649 16.947 4.143 18.524 4.735 15.118 11.871 26.604 17.75 34.417-13.435-3.958-26.87-7.917-40.306-11.875l11.75 35.708 10.444 10.278c4.152 3.217 10.004 7.093 17.569 10.306 8.153 3.462 15.516 4.973 20.958 5.667 10.844 1.915 25.746 4.148 43.583 5.583 16.835 1.355 38.273 3.08 65.333.5 16.755-1.598 39.868-5.246 66.667-14.167 3.266-1.506 6.946-3.497 10.778-6.141 6.447-4.449 11.18-9.269 14.5-13.248 4.977-12.322 9.954-24.644 14.931-36.965-13.181 3.979-26.361 7.958-39.542 11.938 4.275-10.49 6.756-19.535 8.25-26.083 3.811-16.707 4.178-30.256 4.417-41.167.208-9.492-.136-17.381-.5-22.889-4.777 6.004-9.284 10.575-12.75 13.806-4.974 4.636-8.717 8.074-14.667 11.083-4.118 2.083-7.799 3.205-10.333 3.833-1.833.278-3.667.556-5.5.833.191-1.04.361-2.124.5-3.25.45-3.629.503-6.977.343-9.952-7.54-20.025-15.08-40.051-22.621-60.076-3.472 9.389-6.944 18.778-10.417 28.167l-13.444 13.556c-2.595-8.728-5.532-17.783-8.861-27.111-4.829-13.536-9.945-26.136-15.137-37.779z"/><path style="fill:#fff" d="M175 50.556c-7.972 25.1-14.311 46.101-19 62-12.463 42.255-7.76 29.769-10.889 39 0 0-2.393 7.059-7.444 31.222-.258 1.234-.792 3.872-.667 7.333.182 5.004 1.636 8.814 4.111 14.222 4.841 10.579 9.472 18.289 10.778 20.444 2.036 3.36 4.9 7.917 8.556 13.222-1.514-4.725-2.978-9.767-4.333-15.111-1.436-5.662-2.604-11.085-3.556-16.222 3.252 8.746 8.909 20.166 19 30.889 2.79 2.964 5.603 5.541 8.333 7.778 1.358-.237 3.314-.74 5.361-1.93 3.602-2.094 5.381-5.091 7.639-9.07 3.932-6.93 5.899-10.395 7.222-13.222 2.856-6.1 6.391-13.76 8.778-24.222.798-3.499 1.27-5.668 1.444-8.111.182-2.538.14-5.449-.889-12.333-1.061-7.099-2.087-11.506-2.087-11.506-4.898-21.047-14.802-55.383-14.802-55.383-5.566-19.296-5.698-19.945-8.222-28.444-3.392-11.427-6.547-21.684-9.333-30.556z"/><path style="fill:#fff" d="m134.5 157.917-6.083 20.417v19.083l17.417 40.25-19.833-16-36.833-38.083 13.333 24.083c-5.525-4.22-11.261-9.469-16.654-15.996-24.009-29.061-25.057-63.891-24.596-78.42 3.42 3.514 8.41 8.203 15 13 4.774 3.475 12.898 9.309 24.5 13.833 11.546 4.502 16.708 3.875 25.179 9.933 3.983 2.849 6.802 5.82 8.57 7.9zM136.167 149.792l11.708-39.542c-2.822-2.17-5.868-4.857-8.885-8.161-7.371-8.073-11.467-16.439-13.782-22.547-3.25 6.834-7.899 17.335-11.417 28.625-1.377 4.421-2.375 8.303-3.042 12.917-.748 5.178-.834 9.589-.75 12.792 6.312 3.014 12.625 6.028 18.938 9.042l7.23 6.874zM46.389 190.389l42.278 12.653 6.958 8.042 46.885 32.792-25.622-2.264-11.778-2.389-32-23.611 16.611 19.333c-4.386-1.523-9.484-3.68-14.889-6.778-7.832-4.49-13.78-9.507-18.042-13.708-3.466-8.024-6.934-16.047-10.401-24.07zM223.444 77.667c-1.782 4.331-4.415 9.618-8.333 15.167-4.921 6.968-10.196 11.981-14.389 15.389l11.361 40.722c2.713-2.759 5.426-5.519 8.139-8.278l18.222-8.556c.019-1.96-.02-4.673-.278-7.889-.183-2.274-.895-10.027-4.611-22-2.017-6.499-5.152-14.989-10.111-24.555zM213.861 159.694l5.028 17.694v19.944l-18.722 41.917 21.25-17.5 37.083-38-15.083 27.083c11.512-7.602 18.352-15.893 22.196-21.417 12.188-17.516 14.307-36.036 16.016-50.975 1.104-9.649 1.13-17.706.955-23.191-2.392 3.215-5.839 7.249-10.583 11.25-2.596 2.189-7.248 6.057-14.141 9.158-2.141.963-6.98 2.426-16.657 5.353-5.668 1.714-7.907 2.315-11.085 4.203-2.781 1.652-4.696 3.349-7.96 6.269-3.313 2.964-6.071 5.775-8.297 8.212zM207.167 243.444l47.111-33.111 6.778-7.889L305 188.556l-12.167 25.556c-3.955 3.86-9.399 8.45-16.487 12.67-6.105 3.635-11.832 6.043-16.568 7.663 5.704-6.463 11.407-12.926 17.111-19.389l-32.056 23.222c-4.13.944-8.259 1.889-12.389 2.833-8.425.778-16.851 1.556-25.277 2.333z"/></g></switch></svg>