<?xml version="1.0" encoding="utf-8"?><svg xmlns="http://www.w3.org/2000/svg" viewBox="0 0 350 350" style="enable-background:new 0 0 350 350" xml:space="preserve"><switch><g><path style="opacity:.4" d="m294.42 139.783-15.652 43.768-8.116-51.304-48.406 82.029 37.971-120.87-125.507 42.898 82.609-51.014h-67.246l62.029-23.188c-16.645-5.7-33.29-11.401-49.935-17.101C123.111 45 84.056 45 45 45v260h260v-72.333c-1.111-15.502-2.222-31.005-3.333-46.507l-7.247-46.377z"/><path style="fill:#d75b2a" d="M277 277H73V73h119.101c-5.217 2.841-10.435 5.681-15.652 8.522l43.188 1.449c-14.783 11.691-29.565 23.382-44.348 35.072 28.309-8.213 56.618-16.425 84.928-24.638l-24.348 86.667c11.304-14.203 22.609-28.406 33.913-42.609 2.406 9.855 4.812 19.71 7.217 29.565C277 203.686 277 240.343 277 277z"/><path style="fill:#fff" d="M239.833 45.583 191.417 32.75 201.25 45h-39.083l42.125 18.208-64.903 23.847h72.528L97.111 152.389 252.5 101.722l-42.792 141.403 58.458-96.833L277 208l14-47.778 14 72.444V104l12.333 4.333L305 76.111c-.074 6.481-.148 12.963-.222 19.444-2.407-.593-4.815-1.185-7.222-1.778l-17.111 65c-2.266-13.863-4.532-27.727-6.799-41.59-10.141 16.863-20.282 33.727-30.424 50.59l24.889-81.889-78.667 25.667L250 77.222h-53.889l33.778-12.444-10.778-13.444 20.722-5.751z"/><path d="M73 277V161.889c8.037-3.167 16.074-6.333 24.111-9.5 51.796-16.889 103.593-33.778 155.389-50.667-17.685 58.426-35.37 116.852-53.056 175.278H73z"/><path style="fill:#fff" d="M250.167 194.333 247.583 209.25 257.75 204.333zM263.333 233.75 271.333 252.5 251.583 252.5zM134.167 98.25 137.083 117.667 152.917 103.167zM174.836 184.26 133.375 224.721 125.911 217.072 167.372 176.612 160.519 169.589 111.959 216.976 133.61 239.163 182.169 191.775zM93.708 192.875 126.125 197.042 109.167 213.542 87.083 199.25zM110.833 220.917 129.25 240.083 117.333 242.312 107.844 232.823zM136.667 241.722 153.278 225.111 154.5 260.333 147.944 266.667zM201.413 131.433l11.651 39.645c1.068-2.572 2.135-5.145 3.203-7.717l-9.93-33.789c-1.641.621-3.283 1.241-4.924 1.861zM217.809 125.236l5.921 20.147c1.032-2.485 2.063-4.97 3.095-7.455l-4.258-14.489c-1.587.599-3.173 1.198-4.758 1.797zM209.672 128.311l8.764 29.822 3.123-7.524-7.086-24.113c-1.6.606-3.2 1.211-4.801 1.815zM181.833 138.833c-5.944 5.75-11.889 11.5-17.833 17.25-.722 3.34-1.444 6.681-2.167 10.021 7.74 8.029 15.479 16.057 23.219 24.086 3.51-.619 7.021-1.238 10.531-1.856 4.898-4.708 9.796-9.416 14.695-14.124l-12.201-41.516c-5.414 2.046-10.829 4.093-16.244 6.139zM234.75 118.833c-2.95 1.115-5.899 2.23-8.849 3.344l3.092 10.523c1.92-4.622 3.838-9.244 5.757-13.867z"/></g></switch></svg>